<?xml version="1.0" standalone="no"?>
<!DOCTYPE svg PUBLIC "-//W3C//DTD SVG 20010904//EN"
 "http://www.w3.org/TR/2001/REC-SVG-20010904/DTD/svg10.dtd">
<svg version="1.0" xmlns="http://www.w3.org/2000/svg"
 width="1024.000000pt" height="1024.000000pt" viewBox="0 0 1024.000000 1024.000000"
 preserveAspectRatio="xMidYMid meet">

<g transform="translate(0.000000,1024.000000) scale(0.100000,-0.100000)"
fill="#3498db" stroke="none">
<path d="M5125 7829 c-525 -35 -1059 -251 -1495 -604 -124 -101 -341 -314
-441 -435 -184 -222 -384 -596 -467 -875 -36 -122 -61 -227 -84 -361 -20 -116
-23 -162 -23 -449 0 -287 3 -333 23 -450 105 -602 355 -1096 759 -1497 409
-407 915 -671 1471 -768 654 -114 1364 36 1917 406 420 281 746 641 943 1039
223 450 315 881 299 1395 -18 569 -252 1175 -622 1610 -189 222 -464 455 -713
604 -394 236 -779 356 -1238 386 -164 11 -158 11 -329 -1z m485 -305 c455 -59
898 -258 1248 -560 427 -367 667 -747 797 -1258 61 -241 78 -402 72 -681 -3
-166 -10 -251 -27 -345 -56 -314 -189 -660 -358 -932 -56 -90 -72 -108 -97
-113 -16 -3 -120 -5 -230 -3 l-200 3 -3 718 -2 719 32 -27 c18 -16 98 -89 177
-164 166 -157 184 -171 230 -171 95 0 170 84 156 172 -8 48 14 25 -367 392
l-238 228 0 452 c0 338 -3 455 -12 464 -16 16 -440 17 -469 2 -18 -10 -19 -23
-19 -235 0 -161 -3 -225 -11 -225 -7 0 -80 65 -163 143 -83 79 -187 177 -232
218 -44 41 -132 122 -196 181 l-115 107 26 53 c23 47 26 65 26 153 0 84 -4
107 -23 142 -32 61 -98 121 -170 155 -58 28 -70 30 -151 26 -107 -5 -181 -37
-240 -104 -99 -113 -115 -242 -50 -401 12 -29 11 -34 -6 -54 -22 -24 -523
-495 -759 -713 -83 -77 -257 -239 -386 -360 -130 -122 -316 -295 -413 -386
-98 -90 -187 -178 -197 -196 -51 -81 6 -195 104 -211 59 -9 111 25 286 191 91
85 171 156 178 156 9 0 12 -148 12 -709 0 -637 -2 -709 -16 -715 -9 -3 -110
-6 -225 -6 l-209 0 -31 43 c-50 68 -166 269 -204 350 -59 130 -132 337 -164
463 -47 184 -62 300 -68 529 -11 436 62 786 243 1153 219 444 588 829 1041
1085 286 162 663 269 1023 291 90 5 277 -4 400 -20z m-242 -1115 c15 -11 74
-66 132 -122 117 -114 368 -350 475 -447 39 -35 138 -128 220 -205 83 -78 189
-177 238 -221 l87 -79 -2 -850 -3 -850 -390 0 -390 0 -2 270 c0 149 -4 289 -7
313 -13 97 -98 203 -205 255 -65 31 -68 32 -216 32 -100 0 -163 -5 -190 -13
-65 -22 -141 -80 -179 -135 -67 -98 -69 -111 -74 -434 l-4 -293 -374 0 -374 0
0 854 0 855 258 242 c141 133 300 283 352 334 161 155 514 480 540 498 33 23
76 21 108 -4z m52 -2984 l0 -775 -119 0 -118 0 -8 764 c-4 420 -4 769 -1 775
5 7 51 11 127 11 l119 0 0 -775z m-560 -145 l0 -90 -534 0 -533 0 -88 83 -89
82 75 6 c41 3 320 6 622 7 l547 2 0 -90z m2009 81 l155 -6 -89 -82 -88 -83
-553 0 -554 0 0 90 0 90 488 -1 c268 -1 556 -4 641 -8z m-2009 -556 c0 -63 -2
-115 -4 -115 -61 0 -385 101 -512 160 -160 74 -170 70 194 70 l322 0 0 -115z
m1480 79 c-139 -76 -347 -149 -509 -179 -46 -8 -85 -15 -87 -15 -2 0 -4 52 -4
115 l0 115 333 0 332 0 -65 -36z"/>
<path d="M5210 5681 c-80 -25 -138 -76 -176 -156 -35 -73 -34 -181 2 -253 50
-101 143 -156 264 -157 67 0 82 4 140 36 103 56 150 139 150 264 0 112 -80
223 -187 259 -48 17 -149 20 -193 7z"/>
</g>
</svg>
